<svg width="249" height="48" viewBox="0 0 249 48" fill="none" xmlns="http://www.w3.org/2000/svg">
<path d="M9.58401 11.1901C9.92365 8.99495 10.189 7.36562 10.189 7.36562C10.3321 6.34734 10.8013 4.85572 11.4938 4.95304C11.6196 4.97508 11.7392 5.0238 11.8446 5.09594C11.9499 5.16805 12.0387 5.26192 12.1048 5.37117C12.1126 5.31517 12.1707 5.27142 12.2033 5.22409C12.4763 3.46605 12.4087 1.84185 11.5359 0.774254C8.57864 0.722075 5.82949 3.62221 5.20339 8.07714L4.14152 15.6327C5.44695 13.511 7.19989 11.8623 9.58401 11.1901Z" fill="#FBB03B"/>
<path d="M15.2802 36.1229C14.3251 38.8181 11.6184 42.4874 8.73159 42.0817C6.39976 41.754 5.64854 39.7847 6.00346 37.2593L6.51507 33.619C6.23393 33.6399 5.9514 33.6332 5.67156 33.5991C5.23216 33.6028 4.79841 33.4998 4.40787 33.2982C4.01734 33.0967 3.68176 32.8032 3.43017 32.443C2.54445 31.0982 4.48515 28.8893 5.23438 28.0653C5.69494 27.5589 6.97617 26.3112 7.44987 25.8222C7.45416 25.7917 8.14538 21.8339 8.21079 21.1837C8.44973 18.8187 9.10645 14.4044 9.61397 11.1996C7.19932 11.8674 5.44638 13.5161 4.14095 15.6379L1.17003 36.7771C0.469497 41.7616 2.58649 45.4653 7.44366 46.1479C13.1816 46.9543 17.1672 41.0193 18.7813 37.7727C19.5687 35.8272 16.5619 32.5076 15.2802 36.1229Z" fill="white"/>
<path d="M5.56832 27.6541L5.19479 28.0585C4.44556 28.8825 2.50483 31.0916 3.3906 32.4362C3.64218 32.7963 3.97772 33.0901 4.36829 33.2914C4.75882 33.4929 5.19256 33.5962 5.63197 33.5923C5.91184 33.6263 6.19434 33.633 6.47548 33.6121C6.99311 33.2539 9.5684 29.3741 11.9704 24.4003C10.2205 25.8054 7.7244 26.4618 5.56832 27.6541Z" fill="#ED1C24"/>
<path d="M12.0993 5.3961C12.0957 5.42156 12.1358 5.46874 12.157 5.50285L12.1927 5.2483C12.1652 5.29634 12.1326 5.34367 12.0993 5.3961Z" fill="#F15A24"/>
<path d="M16.3562 11.0836C16.6983 8.64996 16.99 5.20717 15.5961 2.97086C15.2147 2.36541 14.6989 1.85598 14.0888 1.4821C13.4786 1.10822 12.7905 0.879943 12.0779 0.814978C11.899 0.790866 11.7188 0.777674 11.5383 0.775488C12.4263 1.84522 12.4737 3.50292 12.2028 5.24568L12.167 5.50023C12.6561 6.34258 12.7774 8.21315 12.3481 11.268C12.0111 13.2458 11.5424 15.1989 10.945 17.1142C12.665 15.0351 14.7911 13.1689 16.3562 11.0836Z" fill="#F15A24"/>
<path d="M10.9357 17.1203C10.0482 20.1107 8.91147 23.2115 7.95763 24.8634C7.65953 25.4058 7.28203 25.9005 6.83759 26.3311C6.47924 26.7013 5.99686 27.215 5.58126 27.6602C7.71186 26.4644 10.208 25.8079 11.9884 24.4071C13.8925 20.4641 15.6809 15.8661 16.2576 11.7625L16.3528 11.0854C14.7819 13.175 12.6557 15.0412 10.9357 17.1203Z" fill="#F15A24"/>
<path d="M51.0313 19.6529V27.6142C51.0313 28.6252 50.9049 29.5343 50.652 30.3414C50.3911 31.1485 50.0528 31.858 49.6372 32.4692C49.2132 33.0807 48.7198 33.5985 48.1573 34.0225C47.6028 34.4545 47.02 34.8051 46.4085 35.0743C45.797 35.3515 45.1772 35.5511 44.5497 35.6735C43.9218 35.8039 43.3307 35.8693 42.7762 35.8693H32.1611C31.3458 35.8693 30.4571 35.7265 29.4951 35.441C28.533 35.1557 27.6403 34.683 26.8168 34.0225C25.9934 33.3703 25.3085 32.5182 24.7622 31.4665C24.2079 30.423 23.9307 29.1388 23.9307 27.6142V19.6529C23.9307 18.1446 24.2079 16.8645 24.7622 15.8128C25.3085 14.7611 25.9934 13.9091 26.8168 13.2568C27.6403 12.6046 28.533 12.1317 29.4951 11.8382C30.4571 11.5528 31.3458 11.4102 32.1611 11.4102H42.7762C44.2845 11.4102 45.5645 11.6833 46.6164 12.2296C47.6762 12.7676 48.5323 13.4484 49.1845 14.2719C49.8287 15.0953 50.2974 15.9881 50.591 16.9501C50.8845 17.9203 51.0313 18.8212 51.0313 19.6529ZM45.1488 27.6142V19.6895C45.1488 18.8742 44.945 18.2709 44.5373 17.8796C44.1297 17.4882 43.5425 17.2926 42.7762 17.2926H32.21C31.4273 17.2926 30.8322 17.4923 30.4245 17.8918C30.0169 18.2913 29.813 18.8783 29.813 19.6529V27.6142C29.813 28.3806 30.0169 28.9676 30.4245 29.3753C30.8322 29.7829 31.4273 29.9868 32.21 29.9868H42.7762C43.5752 29.9868 44.1704 29.7829 44.5617 29.3753C44.953 28.9676 45.1488 28.3806 45.1488 27.6142Z" fill="white"/>
<path d="M82.828 19.6529V38.2172C82.828 39.2281 82.7016 40.1371 82.449 40.9444C82.1882 41.7515 81.8496 42.4607 81.4339 43.0722C81.0099 43.6837 80.5168 44.2055 79.954 44.6378C79.3999 45.0698 78.8167 45.4204 78.2052 45.6893C77.5938 45.9585 76.9742 46.1584 76.3464 46.2888C75.7186 46.4193 75.1277 46.4843 74.5733 46.4843H63.9579V40.6019H74.5733C75.3723 40.6019 75.9674 40.398 76.3587 39.9904C76.7501 39.5827 76.9456 38.9918 76.9456 38.2172V19.6529C76.9456 18.8783 76.7501 18.2913 76.3587 17.8918C75.9674 17.4923 75.3723 17.2926 74.5733 17.2926H63.9579C63.2404 17.2926 62.6699 17.5167 62.2459 17.9652C61.8219 18.4054 61.61 18.968 61.61 19.6529V27.6142C61.61 28.3806 61.8138 28.9676 62.2215 29.3753C62.6292 29.7829 63.2243 29.9868 64.007 29.9868H74.5733V35.8693H63.9579C63.4035 35.8693 62.8167 35.8039 62.1968 35.6735C61.5773 35.5511 60.9618 35.3515 60.3503 35.0743C59.7388 34.8051 59.156 34.4545 58.6016 34.0225C58.0388 33.5985 57.5497 33.0807 57.134 32.4692C56.71 31.858 56.3674 31.1486 56.1065 30.3414C55.854 29.5343 55.7275 28.6252 55.7275 27.6142V19.6529C55.7275 19.0903 55.7926 18.4992 55.923 17.8796C56.0455 17.2599 56.2453 16.6485 56.5225 16.0451C56.7914 15.4337 57.142 14.8467 57.5741 14.2841C57.9981 13.7297 58.5158 13.2405 59.1273 12.8166C59.7388 12.3926 60.4441 12.0542 61.243 11.8015C62.042 11.5406 62.9471 11.4102 63.9579 11.4102H74.5733C75.1277 11.4102 75.7186 11.4754 76.3464 11.6058C76.9742 11.7363 77.5938 11.9361 78.2052 12.2051C78.8167 12.4741 79.3999 12.8247 79.954 13.2568C80.5168 13.6889 81.0099 14.2107 81.4339 14.8222C81.8496 15.4337 82.1882 16.1389 82.449 16.9379C82.7016 17.7369 82.828 18.6419 82.828 19.6529Z" fill="white"/>
<path d="M93.4039 1.07422V6.39404H87.5215V1.07422H93.4039ZM93.4039 11.4081V35.8671H87.5215V11.4081H93.4039Z" fill="white"/>
<path d="M121.496 29.9868V35.8693H105.537C104.722 35.8693 103.833 35.7265 102.871 35.441C101.909 35.1557 101.016 34.683 100.193 34.0225C99.3693 33.3703 98.6844 32.5182 98.1383 31.4665C97.5839 30.423 97.3066 29.1388 97.3066 27.6142V19.6529C97.3066 19.0903 97.3717 18.4992 97.5021 17.8796C97.6246 17.2599 97.8244 16.6485 98.1016 16.0451C98.3705 15.4337 98.7211 14.8467 99.1532 14.2841C99.5772 13.7297 100.095 13.2405 100.706 12.8166C101.318 12.3926 102.023 12.0542 102.822 11.8015C103.621 11.5406 104.526 11.4102 105.537 11.4102H121.496V17.2926H105.537C104.771 17.2926 104.188 17.4882 103.788 17.8796C103.389 18.2709 103.189 18.8742 103.189 19.6895V27.6142C103.189 28.3806 103.393 28.9676 103.8 29.3753C104.208 29.7829 104.803 29.9868 105.586 29.9868H121.496Z" fill="white"/>
<path d="M157.86 27.6118V28.7369C157.86 29.4625 157.733 30.2411 157.48 31.0727C157.236 31.9045 156.828 32.6748 156.258 33.384C155.695 34.0852 154.961 34.6764 154.056 35.1574C153.151 35.6302 152.042 35.8667 150.73 35.8667H128.399C127.975 35.8667 127.583 35.7933 127.225 35.6465C126.858 35.4917 126.544 35.2839 126.283 35.023C126.022 34.7538 125.814 34.4399 125.659 34.0812C125.512 33.7143 125.439 33.323 125.439 32.9073V6.39365C125.439 5.98598 125.512 5.59873 125.659 5.23183C125.814 4.87311 126.022 4.55515 126.283 4.27795C126.544 4.00889 126.858 3.80099 127.225 3.65424C127.583 3.49933 127.975 3.42188 128.399 3.42188H148.076C148.802 3.42188 149.58 3.55232 150.412 3.81322C151.243 4.06595 152.018 4.47361 152.735 5.03617C153.445 5.60687 154.04 6.34471 154.521 7.24972C154.994 8.15469 155.23 9.2635 155.23 10.5761V11.6768C155.23 12.7204 155.055 13.8414 154.704 15.0399C154.362 16.2384 153.808 17.3757 153.041 18.4519C153.702 18.8514 154.321 19.3406 154.9 19.9195C155.479 20.4902 155.988 21.1546 156.429 21.9129C156.869 22.6629 157.215 23.5149 157.468 24.4688C157.729 25.4146 157.86 26.4622 157.86 27.6118ZM151.977 28.7002V27.6118C151.977 26.8373 151.855 26.1484 151.61 25.545C151.366 24.9335 151.027 24.4077 150.595 23.9674C150.155 23.5271 149.625 23.1929 149.005 22.9646C148.386 22.7282 147.693 22.6099 146.926 22.6099H133.669V16.6787H144.285C145.051 16.6787 145.744 16.5645 146.364 16.3362C146.983 16.0998 147.509 15.7614 147.941 15.3212C148.382 14.8891 148.72 14.3673 148.957 13.7558C149.185 13.1443 149.299 12.4513 149.299 11.6768V10.5761C149.299 9.72821 148.891 9.30426 148.076 9.30426H131.322V29.9843H150.73C150.836 29.9843 150.962 29.9762 151.109 29.9599C151.264 29.9436 151.402 29.8987 151.525 29.8253C151.639 29.752 151.745 29.6256 151.843 29.4462C151.932 29.2587 151.977 29.01 151.977 28.7002Z" fill="white"/>
<path d="M188.929 19.5061V27.7732C188.929 28.5885 188.786 29.465 188.501 30.4026C188.215 31.3483 187.751 32.2247 187.107 33.032C186.471 33.839 185.635 34.5115 184.6 35.0496C183.564 35.5961 182.309 35.8693 180.833 35.8693H170.218C169.402 35.8693 168.526 35.7265 167.589 35.441C166.643 35.1557 165.766 34.691 164.959 34.0468C164.152 33.403 163.479 32.5673 162.941 31.5399C162.395 30.5045 162.122 29.2489 162.122 27.7732C162.122 26.9579 162.265 26.0733 162.55 25.1194C162.835 24.1737 163.3 23.2972 163.944 22.4901C164.588 21.6829 165.424 21.0062 166.451 20.46C167.487 19.9219 168.742 19.6529 170.218 19.6529H180.833V25.2539H170.218C169.419 25.2539 168.803 25.5026 168.371 25.9999C167.931 26.4891 167.711 27.0924 167.711 27.8099C167.711 28.5845 167.964 29.1837 168.469 29.6077C168.974 30.0397 169.574 30.2558 170.267 30.2558H180.833C181.632 30.2558 182.252 30.0153 182.692 29.5343C183.124 29.0532 183.34 28.4499 183.34 27.7243V19.5061C183.34 18.7397 183.104 18.1323 182.631 17.6839C182.158 17.2273 181.559 16.9991 180.833 16.9991H167.919V11.4102H180.833C181.648 11.4102 182.525 11.5528 183.462 11.8382C184.408 12.1317 185.284 12.5964 186.092 13.2324C186.899 13.8764 187.576 14.7121 188.122 15.7394C188.66 16.7748 188.929 18.0304 188.929 19.5061Z" fill="white"/>
<path d="M217.178 27.6142C217.178 28.6252 217.047 29.5343 216.786 30.3414C216.534 31.1485 216.195 31.858 215.771 32.4692C215.347 33.0807 214.858 33.5985 214.304 34.0225C213.741 34.4545 213.158 34.8051 212.555 35.0743C211.943 35.3515 211.324 35.5511 210.696 35.6735C210.068 35.8039 209.477 35.8693 208.923 35.8693H192.988V29.9868H208.874C209.673 29.9868 210.276 29.7829 210.684 29.3753C211.091 28.9676 211.295 28.3806 211.295 27.6142C211.222 26.0407 210.431 25.2539 208.923 25.2539H199.799C198.503 25.2539 197.402 25.0297 196.498 24.5813C195.593 24.1248 194.859 23.5581 194.296 22.8814C193.725 22.2047 193.318 21.475 193.073 20.6923C192.821 19.9015 192.694 19.1677 192.694 18.491C192.694 17.1784 192.931 16.0737 193.403 15.1769C193.868 14.28 194.455 13.5544 195.165 13C195.874 12.4375 196.644 12.0339 197.476 11.7893C198.299 11.5365 199.074 11.4102 199.799 11.4102H214.255V17.2926H199.848C199.547 17.2926 199.31 17.3293 199.139 17.4026C198.96 17.4678 198.829 17.5575 198.748 17.6717C198.666 17.7858 198.617 17.904 198.601 18.0263C198.585 18.1568 198.577 18.2831 198.577 18.4054C198.593 18.6419 198.638 18.8294 198.711 18.968C198.793 19.1066 198.886 19.2044 198.992 19.2615C199.106 19.3267 199.237 19.3593 199.384 19.3593C199.522 19.3675 199.661 19.3716 199.799 19.3716H208.923C210.431 19.3716 211.711 19.6447 212.763 20.1909C213.823 20.7372 214.675 21.418 215.319 22.2333C215.971 23.0567 216.444 23.9535 216.737 24.9238C217.031 25.8858 217.178 26.7826 217.178 27.6142Z" fill="white"/>
<path d="M248.855 19.5061C248.855 20.3214 248.713 21.2019 248.427 22.1477C248.142 23.0934 247.677 23.9699 247.033 24.777C246.397 25.5841 245.561 26.2568 244.526 26.7949C243.491 27.3411 242.235 27.6142 240.759 27.6142H230.144V22.0254H240.759C241.558 22.0254 242.178 21.7808 242.618 21.2916C243.05 20.8024 243.267 20.195 243.267 19.4694C243.267 18.6949 243.022 18.0915 242.533 17.6594C242.044 17.2192 241.452 16.9991 240.759 16.9991H230.144C229.345 16.9991 228.73 17.2436 228.298 17.7328C227.857 18.222 227.637 18.8294 227.637 19.555V27.7732C227.637 28.5559 227.882 29.1674 228.371 29.6077C228.86 30.0397 229.468 30.2558 230.193 30.2558H240.759V35.8693H230.144C229.329 35.8693 228.452 35.7265 227.515 35.441C226.569 35.1557 225.693 34.691 224.886 34.0468C224.079 33.403 223.406 32.5673 222.868 31.5399C222.321 30.5045 222.048 29.2489 222.048 27.7732V19.5061C222.048 18.6989 222.191 17.8225 222.476 16.8768C222.762 15.931 223.226 15.0546 223.87 14.2474C224.515 13.4403 225.35 12.7676 226.377 12.2296C227.413 11.6833 228.669 11.4102 230.144 11.4102H240.759C241.575 11.4102 242.451 11.5528 243.389 11.8382C244.334 12.1317 245.211 12.5964 246.018 13.2324C246.825 13.8764 247.502 14.7121 248.048 15.7394C248.586 16.7748 248.855 18.0304 248.855 19.5061Z" fill="white"/>
</svg>
